<?xml version="1.0" encoding="UTF-8"?>
<!DOCTYPE svg PUBLIC "-//W3C//DTD SVG 1.1//EN" "http://www.w3.org/Graphics/SVG/1.1/DTD/svg11.dtd">
<!-- Creator: CorelDRAW 2019 (64-Bit) -->
<svg xmlns="http://www.w3.org/2000/svg" xml:space="preserve" width="50px" height="50px" version="1.1" style="shape-rendering:geometricPrecision; text-rendering:geometricPrecision; image-rendering:optimizeQuality; fill-rule:evenodd; clip-rule:evenodd"
viewBox="0 0 50 50"
 xmlns:xlink="http://www.w3.org/1999/xlink">
 <defs>
  <style type="text/css">
   <![CDATA[
    .fil1 {fill:#FEFEFE}
    .fil0 {fill:#ED3237}
   ]]>
  </style>
 </defs>
 <g id="Capa_x0020_1">
  <metadata id="CorelCorpID_0Corel-Layer"/>
  <circle class="fil0" cx="25" cy="25" r="25"/>
  <path class="fil1" d="M15.85 28.09l1.29 -0.91c-0.19,0.54 0.07,0.46 -0.76,1.29 -0.49,0.52 -1.03,1.26 -1.43,1.88 -1,-0.03 -2.21,-0.49 -3.02,-0.36 -0.8,0.13 -1.8,0.9 -2.68,1.11 0.61,0.89 0.77,-0.09 0.49,0.83 -0.01,0.02 -0.8,0.94 -0.89,1.02 -1.07,0.9 -1.3,0.03 -2.69,-0.09 0.73,-1.05 1.57,-0.69 1.9,-2.01 -0.17,0 -0.54,0.02 -0.7,-0.01l-0.72 -0.24c1.01,-0.25 1.82,-0.5 3.09,-0.5 -0.55,-0.79 -3.21,-1.71 -3.81,-1.76 0.62,-0.97 0.81,-0.53 1.43,-1.51 -1.12,-0.09 -1.14,-0.47 -2.38,-0.5 0.43,-0.62 1.24,-0.78 2.04,-1.11 0.88,-0.37 1.55,-0.61 2.3,-1.08 1.78,-1.13 0.96,-1.95 1.58,-5.12 2.02,-10.47 10.97,-17.69 20.64,-15.47 0.79,0.18 1.83,0.62 2.67,0.7l-1.39 -0.8c-12.63,-4.7 -24.78,2.14 -28.58,14.06 -2.96,9.27 0.08,19.1 6.75,25.07 2.65,2.36 5.93,4.11 9.58,4.94 4.43,1.01 8.42,0.49 11.93,-0.91 2.28,-0.92 4.36,-2.21 6.23,-3.71 2.52,-2.02 4.83,-5.31 6.25,-8.45 1.8,-3.96 2.16,-7.86 1.82,-12.38l-0.7 -3.54c-0.26,-0.65 -0.05,-0.18 -0.25,-0.48 0,2.93 1.15,4.11 -0.06,9.48 -0.67,2.98 -1.66,4.89 -3.12,7.24 -1.35,2.16 -3.15,3.73 -5.13,5.12 -3.28,2.31 -5.65,2.05 -7.37,3.01l0 1.5c0.87,0.25 0.5,0.27 1.19,0.76l-2.13 -0.54c-0.01,-1.12 -0.04,-2.31 0.22,-2.62 0.66,-0.76 1.85,-0.65 2.45,-4.05 0.14,-0.79 0.41,-2.07 0.41,-3.08l0.84 2.29c0.46,-1.64 0.35,-3.58 0.35,-5.56 0.87,-0.38 0.04,-0.04 0.75,0l0.2 0c0,-4.52 0.33,-2.44 0.47,-4.26 0.83,0.35 -0.03,0.33 0.95,0.75 0.04,-0.46 0.37,-2.34 0.52,-2.72 0.78,-1.98 4.18,-1.39 4.64,-3.38 0.12,-0.54 0.07,-1.12 0.07,-1.68 -0.77,-0.02 -0.79,0.19 -1.59,-0.83l-0.31 -0.43c0,1.28 0.26,1.31 -0.5,1.73 -0.35,0.19 -1.53,0.28 -2.11,0.28 0,-2.03 1.16,-5.99 1.81,-7.88 0.61,-1.77 0.82,-1.59 -1.24,-4.78 -0.45,-0.69 -0.67,-0.79 -1.05,-1.39 -1.07,0.75 -1.45,1.73 -2.69,2.43 -4.39,2.49 -2.13,1.04 -5.79,4.42 -1.76,1.64 -0.9,0.68 -4.11,0.93 -3.34,0.27 -6.47,4.39 -8.04,4.42 -0.59,0.01 -1.99,-1.2 -4.56,2.85 1.38,0 2.06,-0.33 3.19,-0.3 0.41,0.01 0.06,-0.11 0.38,0.05l-0.31 0.42c-0.36,0.25 -0.6,0.34 -0.92,0.54 -0.74,0.45 -1.04,0.67 -1.72,1.2 -1.25,0.95 -2.15,1.29 -2.99,2.61 0.64,0.93 1.97,1.46 3.27,1.82 1.96,0.53 2.32,0.79 4.04,-0.31zm29.99 -10.29l-0.07 0.07c0,0 0.09,-0.05 0.07,-0.07zm-11.64 -13.3l0.07 -0.08c-0.01,0.01 -0.09,0.05 -0.07,0.08zm-20.67 23.09c-0.14,-0.32 -0.09,0.05 -0.07,-0.37 0,-0.01 0.06,-0.55 0.07,-0.64l-2.14 0 2.09 -1.58c0.97,-0.62 1.37,0.01 2.66,0.33 -0.72,1.43 -0.52,2.21 -2.61,2.26zm8.63 -7.53c-0.31,0.42 0.41,0.17 -0.62,0.5 -0.03,-1.18 -0.07,-0.25 0.3,-0.63 1.49,-1.59 0.43,-2.21 2.75,-2.99 0.64,-0.22 0.84,-0.34 1.53,-0.4 -1.59,2.52 -0.34,1.31 -1.78,1.89 -1.03,0.41 -1.48,1 -2.18,1.63z"/>
 </g>
</svg>
